HIERARCHY
ROOT Hips
{
	OFFSET	0.000000	0.000000	0.000000
	CHANNELS 6 Xposition Yposition Zposition Zrotation Xrotation Yrotation
	JOINT LeftUpLeg
	{
		OFFSET	12.811937	-7.635976	0.557276
		CHANNELS 3 Zrotation Xrotation Yrotation
		JOINT LeftLeg
		{
			OFFSET	-0.429270	-42.206163	-1.204951
			CHANNELS 3 Zrotation Xrotation Yrotation
			JOINT LeftFoot
			{
				OFFSET	-2.112259	-42.464481	-3.973220
				CHANNELS 3 Zrotation Xrotation Yrotation
				JOINT LeftFootHeel
				{
					OFFSET	0.387196	-5.329707	-3.419729
					CHANNELS 3 Zrotation Xrotation Yrotation
					End Site
					{
						OFFSET	0.327567	-0.000003	16.505428
					}
				}
			}
		}
	}
	JOINT RightUpLeg
	{
		OFFSET	-12.811937	-7.635976	0.557276
		CHANNELS 3 Zrotation Xrotation Yrotation
		JOINT RightLeg
		{
			OFFSET	0.429270	-42.206163	-1.204951
			CHANNELS 3 Zrotation Xrotation Yrotation
			JOINT RightFoot
			{
				OFFSET	2.112259	-42.464481	-3.973220
				CHANNELS 3 Zrotation Xrotation Yrotation
				JOINT RightFootHeel
				{
					OFFSET	-0.387198	-5.329707	-3.419729
					CHANNELS 3 Zrotation Xrotation Yrotation
					End Site
					{
						OFFSET	-0.327566	-0.000003	16.505428
					}
				}
			}
		}
	}
	JOINT Spine
	{
		OFFSET	0.000000	13.731316	-1.007646
		CHANNELS 3 Zrotation Xrotation Yrotation
		JOINT Spine1
		{
			OFFSET	0.000000	12.091746	-0.604589
			CHANNELS 3 Zrotation Xrotation Yrotation
			JOINT LeftShoulder
			{
				OFFSET	5.746115	20.990027	-0.833816
				CHANNELS 3 Zrotation Xrotation Yrotation
				JOINT LeftArm
				{
					OFFSET	10.881538	-1.359258	0.219250
					CHANNELS 3 Zrotation Xrotation Yrotation
					JOINT LeftForeArm
					{
						OFFSET	4.390314	-31.537147	0.202818
						CHANNELS 3 Zrotation Xrotation Yrotation
						JOINT LeftHand
						{
							OFFSET	3.168650	-24.865025	5.373370
							CHANNELS 3 Zrotation Xrotation Yrotation
							End Site
							{
								OFFSET	1.457528	-10.806075	2.170267
							}
						}
					}
				}
			}
			JOINT RightShoulder
			{
				OFFSET	-5.746115	20.990027	-0.833816
				CHANNELS 3 Zrotation Xrotation Yrotation
				JOINT RightArm
				{
					OFFSET	-10.881538	-1.359258	0.219250
					CHANNELS 3 Zrotation Xrotation Yrotation
					JOINT RightForeArm
					{
						OFFSET	-4.390314	-31.537147	0.202818
						CHANNELS 3 Zrotation Xrotation Yrotation
						JOINT RightHand
						{
							OFFSET	-3.168650	-24.865025	5.373370
							CHANNELS 3 Zrotation Xrotation Yrotation
							End Site
							{
								OFFSET	-1.457528	-10.806075	2.170267
							}
						}
					}
				}
			}
			JOINT Neck
			{
				OFFSET	0.000000	27.075639	0.680489
				CHANNELS 3 Zrotation Xrotation Yrotation
				JOINT Head
				{
					OFFSET	0.000000	12.391288	1.239129
					CHANNELS 3 Zrotation Xrotation Yrotation
					End Site
					{
						OFFSET	0.000000	13.818692	-0.105853
					}
				}
			}
		}
	}
}
MOTION
Frames:    16
Frame Time: 0.016667
0.740333	95.586276	-1.756197	8.209089	17.471767	64.458443	-16.113100	1.744637	0.637772	-1.127409	-2.296148	-5.088024	-0.747727	0.745769	6.760890	0.	0.	0.	-17.629681	-6.485030	-16.371744	-3.867802	55.659935	-6.850314	3.087186	-1.181684	-1.717146	0.	0.	0.	-0.000001	0.000000	-0.000001	-21.307165	13.257580	11.823355	6.226324	5.416489	-6.314248	58.079449	8.183769	-11.346439	-80.381065	-33.697594	-86.371971	83.031807	-60.760830	26.171984	-16.176485	0.717864	-7.334487	-99.429924	-2.360416	-62.422123	-28.671820	-136.305740	-21.074669	-74.281075	-39.889374	2.804873	-4.758297	1.695807	-0.427716	8.755569	-2.049897	5.418347	
0.735150	95.587497	-1.757138	8.207257	17.465311	64.407448	-16.108932	1.728110	0.653022	-1.122767	-2.281869	-5.059247	-0.749084	0.733947	6.766798	0.	0.	0.	-17.619736	-6.461703	-16.345865	-3.861978	55.631187	-6.860125	3.075274	-1.190145	-1.689100	0.	0.	0.	0.000002	0.000000	-0.000001	-21.307377	13.242215	11.838531	6.271242	5.411895	-6.307508	58.024761	8.202962	-11.335709	-80.360237	-33.691990	-86.432770	82.993820	-60.727615	26.129766	-16.192768	0.734292	-7.340583	-99.431984	-2.358359	-62.466194	-28.621998	-136.291870	-21.013254	-74.273376	-39.967182	2.811299	-4.776432	1.643277	-0.396253	8.869804	-2.145942	5.208076	
0.731669	95.588515	-1.757136	8.205462	17.459053	64.357994	-16.104671	1.712997	0.679965	-1.120549	-2.267955	-5.064326	-0.749029	0.721604	6.793258	0.	0.	0.	-17.609228	-6.443969	-16.306101	-3.838326	55.608482	-6.893261	3.063998	-1.198147	-1.663033	0.	0.	0.	0.000000	0.000001	-0.000001	-21.289129	13.229847	11.843476	6.292063	5.409840	-6.293224	58.003723	8.056493	-11.321971	-80.313347	-33.681820	-86.296097	82.943550	-60.697281	26.102781	-16.226559	0.748024	-7.338180	-99.434593	-2.353256	-62.507042	-28.573421	-136.278458	-20.955688	-74.292374	-40.039165	2.793596	-4.809802	1.607129	-0.364369	8.973307	-2.233187	5.013231	
0.716762	95.591160	-1.764546	8.202696	17.449429	64.282021	-16.097683	1.691169	0.731873	-1.123233	-2.265280	-5.094300	-0.745403	0.720427	6.845549	0.	0.	0.	-17.592554	-6.443122	-16.247887	-3.820882	55.597038	-6.926902	3.048721	-1.208972	-1.628689	0.	0.	0.	0.000002	0.000000	0.000000	-21.291927	13.206007	11.879951	6.317292	5.408064	-6.272974	57.984318	7.977875	-11.312541	-80.286613	-33.677898	-86.224617	82.922379	-60.673157	26.097433	-16.228474	0.655222	-7.372454	-99.467651	-2.382070	-62.458206	-28.503628	-136.261078	-20.879755	-74.362503	-40.132179	2.729397	-4.828784	1.578520	-0.333723	9.114321	-2.382828	4.756259	
0.702570	95.593156	-1.771367	8.200869	17.443100	64.232269	-16.095221	1.669342	0.688427	-1.119895	-2.257496	-5.038725	-0.742839	0.719609	6.882276	0.	0.	0.	-17.582262	-6.453565	-16.228273	-3.847857	55.596676	-6.905030	3.042855	-1.213349	-1.609793	0.	0.	0.	0.000002	0.000002	0.000002	-21.292242	13.191203	11.891082	6.337204	5.407066	-6.249771	57.960964	7.953456	-11.305942	-80.254250	-33.670677	-86.204308	82.901291	-60.670208	26.079432	-16.188801	0.539302	-7.466188	-99.536003	-2.491989	-62.394531	-28.461672	-136.251282	-20.837061	-74.409798	-40.201942	2.690789	-4.857864	1.580371	-0.295381	9.213522	-2.524174	4.624541	
0.697104	95.594047	-1.774055	8.199997	17.440090	64.208618	-16.093445	1.661104	0.689403	-1.119783	-2.255510	-5.033848	-0.741626	0.719229	6.899572	0.	0.	0.	-17.577530	-6.458155	-16.221931	-3.872123	55.593945	-6.882407	3.043967	-1.212954	-1.601862	0.	0.	0.	0.000001	0.000001	0.000000	-21.292263	13.184246	11.895253	6.350162	5.406189	-6.239440	57.945045	7.948874	-11.302223	-80.243530	-33.671913	-86.204857	82.882652	-60.666737	26.064842	-16.173820	0.491872	-7.514853	-99.564438	-2.547377	-62.372864	-28.440874	-136.246536	-20.816269	-74.432999	-40.235542	2.671738	-4.866739	1.579708	-0.276539	9.254153	-2.600335	4.572955	
0.687395	95.595733	-1.778884	8.198220	17.434004	64.160751	-16.089165	1.646742	0.713825	-1.121066	-2.253379	-5.045398	-0.739238	0.718486	6.933497	0.	0.	0.	-17.568148	-6.467027	-16.212431	-3.925452	55.587784	-6.829744	3.046032	-1.212220	-1.587069	0.	0.	0.	0.000000	0.000000	-0.000002	-21.290630	13.171091	11.889237	6.370895	5.405727	-6.203235	57.917957	7.921656	-11.294352	-80.230698	-33.675953	-86.186699	82.820412	-60.664982	26.012413	-16.145168	0.402884	-7.555920	-99.628410	-2.596626	-62.339466	-28.381577	-136.237610	-20.771879	-74.499573	-40.341820	2.623603	-4.874619	1.573272	-0.225509	9.314295	-2.765136	4.509962	
0.682036	95.596508	-1.781112	8.197395	17.431185	64.138672	-16.088140	1.636889	0.689414	-1.121742	-2.249389	-5.045385	-0.735991	0.717489	6.979478	0.	0.	0.	-17.564753	-6.468904	-16.224909	-3.974756	55.582100	-6.784317	3.048353	-1.211390	-1.570390	0.	0.	0.	0.000001	0.000001	-0.000001	-21.289301	13.165351	11.881577	6.407545	5.402282	-6.195209	57.877331	7.913141	-11.285134	-80.223946	-33.673569	-86.166649	82.742554	-60.690502	25.932070	-16.088896	0.303456	-7.610255	-99.711220	-2.656545	-62.284637	-28.350458	-136.241684	-20.773020	-74.536530	-40.421234	2.610175	-4.878980	1.569694	-0.197254	9.388564	-3.019012	4.466942	
0.677460	95.597264	-1.783470	8.196655	17.428656	64.118927	-16.086521	1.630448	0.693792	-1.121244	-2.248225	-5.036747	-0.735545	0.717350	6.985822	0.	0.	0.	-17.560589	-6.473166	-16.216120	-3.988919	55.580273	-6.766018	3.048353	-1.211390	-1.570390	0.	0.	0.	-0.000002	0.000001	0.000000	-21.289639	13.159358	11.888040	6.418472	5.401438	-6.189226	57.863247	7.917722	-11.282532	-80.223946	-33.673569	-86.166649	82.721382	-60.699078	25.909357	-16.081161	0.289713	-7.608204	-99.728996	-2.650165	-62.284245	-28.329981	-136.238358	-20.758135	-74.555862	-40.448864	2.593993	-4.876299	1.560565	-0.185187	9.407007	-3.090646	4.453360	
0.669630	95.598553	-1.787655	8.195386	17.424337	64.085167	-16.083576	1.620028	0.707844	-1.119947	-2.246877	-5.017704	-0.735545	0.717350	6.985822	0.	0.	0.	-17.554543	-6.478045	-16.220291	-4.038994	55.573803	-6.701321	3.048353	-1.211390	-1.570390	0.	0.	0.	-0.000001	0.000001	0.000001	-21.292006	13.148110	11.914716	6.444324	5.398417	-6.196081	57.835243	7.926832	-11.277364	-80.223946	-33.673569	-86.166649	82.693726	-60.710266	25.879671	-16.072948	0.280186	-7.610515	-99.750549	-2.631672	-62.289345	-28.296333	-136.231369	-20.729845	-74.594444	-40.507511	2.564055	-4.868064	1.543744	-0.179762	9.437529	-3.225837	4.440979	
0.664062	95.599590	-1.790694	8.194346	17.420778	64.057564	-16.080698	1.612932	0.734860	-1.119947	-2.246877	-5.017704	-0.735545	0.717350	6.985822	0.	0.	0.	-17.549057	-6.483173	-16.214481	-4.067507	55.570099	-6.664469	3.048353	-1.211390	-1.570390	0.	0.	0.	0.000003	0.000001	-0.000002	-21.287542	13.139399	11.940912	6.464555	5.395522	-6.209817	57.807507	7.935824	-11.272238	-80.212296	-33.671711	-86.171898	82.714890	-60.699898	25.902576	-16.044991	0.254508	-7.640532	-99.791725	-2.654912	-62.276306	-28.279093	-136.221497	-20.699066	-74.648933	-40.606197	2.533059	-4.842636	1.492541	-0.162097	9.428076	-3.320199	4.445315	
0.662400	95.600132	-1.794132	8.193672	17.418480	64.039642	-16.078848	1.608322	0.752401	-1.124294	-2.245901	-5.033154	-0.731324	0.716563	7.001091	0.	0.	0.	-17.544735	-6.488231	-16.196960	-4.067507	55.570099	-6.664469	3.048353	-1.211390	-1.570390	0.	0.	0.	-0.000002	0.000000	0.000001	-21.268591	13.135922	11.950391	6.484224	5.392299	-6.225814	57.768490	7.934272	-11.263883	-80.177376	-33.659786	-86.162910	82.740685	-60.660248	25.933723	-16.016369	0.251517	-7.654458	-99.862984	-2.620019	-62.300888	-28.238377	-136.225052	-20.700087	-74.688828	-40.659340	2.509051	-4.825397	1.462603	-0.120801	9.403775	-3.485606	4.493036	
0.669764	95.599842	-1.797976	8.193672	17.418480	64.039642	-16.081717	1.613230	0.746310	-1.128209	-2.249312	-5.035770	-0.724359	0.715417	7.009496	0.	0.	0.	-17.545061	-6.487508	-16.202717	-4.075250	55.569084	-6.654454	3.048353	-1.211390	-1.570390	0.	0.	0.	-0.000002	0.000000	0.000001	-21.267323	13.136647	11.939300	6.494456	5.391473	-6.220987	57.756721	7.930658	-11.261119	-80.166740	-33.652821	-86.151436	82.758934	-60.659271	25.949278	-16.004486	0.248811	-7.647816	-99.883018	-2.607208	-62.309692	-28.242916	-136.227310	-20.715755	-74.718040	-40.686878	2.498031	-4.799126	1.454647	-0.084266	9.375636	-3.541390	4.503944	
0.688949	95.599221	-1.802973	8.193672	17.418480	64.039642	-16.093119	1.631562	0.725173	-1.123765	-2.266443	-5.029445	-0.716868	0.714140	7.023973	0.	0.	0.	-17.546150	-6.485085	-16.222036	-4.101255	55.565704	-6.620845	3.048353	-1.211390	-1.570390	0.	0.	0.	-0.000002	0.000000	0.000001	-21.265244	13.137829	11.921096	6.496626	5.391984	-6.206101	57.751011	7.929195	-11.259792	-80.147446	-33.644531	-86.139771	82.779907	-60.659279	25.968100	-15.999445	0.250464	-7.628140	-99.903969	-2.569696	-62.329288	-28.254620	-136.231857	-20.749802	-74.761032	-40.697472	2.478224	-4.768363	1.433806	-0.032223	9.375929	-3.628767	4.564972	
0.704222	95.599299	-1.817331	8.193256	17.417053	64.028610	-16.105465	1.639382	0.720116	-1.123246	-2.274344	-5.019365	-0.703243	0.712026	7.029365	0.	0.	0.	-17.543909	-6.487221	-16.218990	-4.111665	55.564350	-6.607389	3.048353	-1.211390	-1.570390	0.	0.	0.	0.000000	-0.000001	-0.000002	-21.258184	13.135371	11.923452	6.488068	5.393040	-6.199565	57.751011	7.929195	-11.259792	-80.122047	-33.643833	-86.124123	82.762131	-60.663605	25.957268	-16.003519	0.279315	-7.601546	-99.912537	-2.526976	-62.362347	-28.279003	-136.232712	-20.777905	-74.810112	-40.722965	2.457184	-4.755523	1.405363	-0.001006	9.399409	-3.692433	4.644044	
0.714703	95.599968	-1.835693	8.192561	17.414654	64.010124	-16.118788	1.639949	0.735041	-1.120732	-2.276822	-5.015243	-0.690216	0.710065	7.028218	0.	0.	0.	-17.539417	-6.492424	-16.200903	-4.111665	55.564350	-6.607389	3.048353	-1.211390	-1.570390	0.	0.	0.	-0.000001	0.000000	0.000000	-21.245789	13.130646	11.939998	6.474510	5.394073	-6.201372	57.751011	7.929195	-11.259792	-80.095802	-33.642960	-86.108055	82.749458	-60.664135	25.952389	-16.012291	0.319625	-7.577118	-99.928329	-2.460992	-62.408592	-28.281721	-136.235992	-20.802616	-74.855797	-40.749710	2.435171	-4.745422	1.331125	0.072341	9.414721	-3.706012	4.655130	
